<?xml version="1.0" encoding="UTF-8" standalone="no"?>
<!-- Created with Inkscape (http://www.inkscape.org/) -->

<svg
   xmlns:dc="http://purl.org/dc/elements/1.1/"
   xmlns:cc="http://creativecommons.org/ns#"
   xmlns:rdf="http://www.w3.org/1999/02/22-rdf-syntax-ns#"
   xmlns:svg="http://www.w3.org/2000/svg"
   xmlns="http://www.w3.org/2000/svg"
   xmlns:sodipodi="http://sodipodi.sourceforge.net/DTD/sodipodi-0.dtd"
   xmlns:inkscape="http://www.inkscape.org/namespaces/inkscape"
   width="354.33069"
   height="354.33069"
   id="svg3009"
   version="1.1"
   inkscape:version="0.48.4 r9939"
   sodipodi:docname="mate_logo.svg">
  <defs
     id="defs3011" />
  <sodipodi:namedview
     id="base"
     pagecolor="#ffffff"
     bordercolor="#666666"
     borderopacity="1.0"
     inkscape:pageopacity="0.0"
     inkscape:pageshadow="2"
     inkscape:zoom="1.979899"
     inkscape:cx="53.460507"
     inkscape:cy="193.50665"
     inkscape:document-units="px"
     inkscape:current-layer="g17"
     showgrid="false"
     units="mm"
     inkscape:window-width="1920"
     inkscape:window-height="1004"
     inkscape:window-x="0"
     inkscape:window-y="24"
     inkscape:window-maximized="1" />
  <metadata
     id="metadata3014">
    <rdf:RDF>
      <cc:Work
         rdf:about="">
        <dc:format>image/svg+xml</dc:format>
        <dc:type
           rdf:resource="http://purl.org/dc/dcmitype/StillImage" />
        <dc:title />
      </cc:Work>
    </rdf:RDF>
  </metadata>
  <g
     inkscape:label="Ebene 1"
     inkscape:groupmode="layer"
     id="layer1"
     transform="translate(0,-698.03149)">
    <g
       transform="matrix(1.499013,0,0,-1.513768,-274.24744,1544.1309)"
       id="g17">
      <path
         inkscape:connector-curvature="0"
         style="fill:#777777;fill-rule:evenodd;fill-opacity:1"
         id="path19"
         d="m 300.672,550.008 c 59.4,0 107.784,-48.384 107.784,-107.712 0,-59.328 -48.384,-107.712 -107.784,-107.712 l 0,-5.4 5.616,-4.32 8.784,9.216 9.504,-6.696 6.048,10.656 12.312,-7.632 4.104,10.656 11.376,-4.896 0.216,13.68 12.312,-4.824 2.088,11.304 9.504,0 0,11.376 9.504,0.936 -0.72,12.24 11.808,2.088 -3.24,11.376 9.288,0.648 -5.112,9.504 9.936,2.808 -6.048,8.784 8.352,2.808 -7.128,8.28 7.848,5.976 -7.848,7.632 8.064,6.048 -6.264,6.048 8.352,5.328 -10.44,5.544 8.352,7.848 -11.808,5.112 7.2,8.352 -12.312,3.24 3.024,9.288 -9.288,3.456 4.464,9.936 -13.68,-0.648 0.648,12.96 -12.024,-1.656 0.504,11.808 -10.656,-3.024 -2.088,11.808 -11.592,-3.672 -0.936,9.288 -13.68,-3.528 -4.176,11.376 -12.024,-6.912 -4.392,10.152 -11.592,-8.568 -2.16,2.808 0,-3.168 z m 0,-215.424 c -59.256,0 -107.64,48.384 -107.64,107.712 0,59.328 48.384,107.712 107.64,107.712 l 0,3.168 -3.816,5.04 -7.128,-8.568 -10.008,7.92 -7.632,-11.16 -5.544,6.48 -5.832,-9.72 -10.872,4.392 -1.8,-10.872 -10.224,3.744 -1.152,-10.44 -10.872,0.936 -1.152,-10.872 -9.72,1.8 -0.504,-13.176 -11.808,-0.216 3.456,-12.312 -9,-0.432 2.304,-11.592 -8.352,-2.808 4.392,-8.568 -6.264,-1.8 4.68,-7.92 -8.352,-2.52 7.848,-8.136 -10.368,-6.48 9.72,-6.912 -8.136,-5.112 8.352,-5.112 -6.984,-7.848 8.352,-4.32 -6.696,-6.768 10.872,-1.584 -6.48,-9.072 10.44,-2.736 -4.68,-10.008 10.656,-1.152 -3.672,-10.368 11.808,-1.872 -4.176,-8.352 13.896,-1.368 0,-13.248 10.656,4.176 -0.216,-11.304 14.328,2.736 -0.864,-10.656 12.96,3.24 6.48,-9.72 9.504,5.112 7.416,-8.352 10.656,6.696 3.528,-2.808 0,5.4 z" />
      <path
         inkscape:connector-curvature="0"
         style="fill:#777777;fill-rule:evenodd;fill-opacity:1"
         id="path23"
         d="m 405.36,441.864 c 0,-32.616 -15.264,-61.848 -38.952,-81 l 0,6.408 c 20.808,18.216 33.984,45 33.984,74.592 0,29.664 -13.176,56.376 -33.984,74.592 l 0,6.48 c 23.688,-19.152 38.952,-48.456 38.952,-81.072 l 0,0 z m -38.952,-32.832 c 0.072,1.152 0.36,2.376 1.224,3.528 2.016,2.592 4.464,5.616 1.728,8.496 1.872,8.28 2.88,12.384 4.824,20.664 -0.576,0.216 -0.936,0.36 -1.512,0.576 -1.944,-8.136 -2.952,-12.168 -4.896,-20.952 -0.504,-0.144 -1.008,-0.36 -1.368,-0.504 l 0,-1.296 c 1.728,0.576 4.752,0.432 2.52,-2.88 -0.864,-1.44 -1.728,-2.88 -2.52,-4.248 l 0,-3.384 0,0 z m 0,33.264 c 0.864,0 1.512,0.72 1.512,1.584 0,0.792 -0.648,1.512 -1.512,1.584 l 0,-3.168 0,0 z m 0,36.72 c 1.8,1.152 3.672,2.52 5.688,3.96 2.592,1.944 6.336,6.048 -3.168,4.896 -0.864,-0.072 -1.728,-0.216 -2.52,-0.288 l 0,-8.568 z m 0,-118.152 c -0.792,-0.648 -1.584,-1.224 -2.376,-1.872 l 0,6.336 c 0.792,0.576 1.584,1.296 2.376,1.944 l 0,-6.408 0,0 z m -2.376,163.872 c 0.792,-0.576 1.584,-1.152 2.376,-1.8 l 0,-6.48 c -0.792,0.72 -1.584,1.368 -2.376,2.016 l 0,6.264 0,0 z m 2.376,-37.152 0,-8.568 c -0.792,-0.504 -1.584,-1.008 -2.376,-1.44 l 0,9.72 c 0.792,0.072 1.584,0.216 2.376,0.288 l 0,0 z m 0,-42.12 0,-3.168 -0.072,0 c -0.792,0 -1.512,0.648 -1.512,1.584 0,0.792 0.72,1.584 1.512,1.584 l 0.072,0 0,0 z m 0,-24.624 0,-1.296 c -0.432,-0.144 -0.792,-0.288 -0.936,-0.432 -0.576,-0.432 -1.008,-0.792 -1.44,-1.224 l 0,1.368 c 0.72,0.648 1.44,1.152 2.376,1.584 l 0,0 z m 0,-8.424 0,-3.384 c -0.288,-1.944 -0.144,-3.888 -2.376,-5.04 l 0,4.752 c 0.864,1.224 1.584,2.448 2.376,3.672 l 0,0 z m -2.376,24.192 0,2.16 c 0.648,0 1.08,-0.504 1.08,-1.08 0,-0.576 -0.432,-1.008 -1.08,-1.08 z m 0,-77.616 c -0.576,-0.432 -1.224,-0.936 -1.8,-1.368 l 0,6.192 c 0.576,0.504 1.224,1.008 1.8,1.512 l 0,-6.336 0,0 z m -1.8,167.184 c 0.576,-0.504 1.224,-0.936 1.8,-1.44 l 0,-6.264 c -0.576,0.504 -1.224,1.008 -1.8,1.512 l 0,6.192 0,0 z m 1.8,-38.88 0,-9.72 c -0.576,-0.36 -1.224,-0.72 -1.8,-1.08 l 0,10.584 c 0.576,0.072 1.224,0.144 1.8,0.216 l 0,0 z m 0,-48.528 0,-2.16 0,0 c -0.576,0 -1.08,0.504 -1.08,1.08 0,0.576 0.504,1.08 1.08,1.08 l 0,0 0,0 z m 0,-19.512 0,-1.368 c -0.648,-0.72 -1.296,-1.368 -1.8,-2.16 l 0,1.44 c 0.576,0.864 1.224,1.512 1.8,2.088 l 0,0 z m 0,-10.512 0,-4.752 c 0,-0.072 -0.072,-0.072 -0.144,-0.144 -1.512,-0.72 -1.944,-2.808 -1.368,-4.32 0.576,-1.44 0.36,-2.664 -0.288,-3.888 l 0,10.512 c 0.648,0.864 1.224,1.728 1.8,2.592 l 0,0 z m -1.8,18.36 0,2.16 0,0 c 0.504,0 1.08,-0.504 1.08,-1.152 0,-0.504 -0.576,-1.008 -1.08,-1.008 l 0,0 z m 0,-69.48 c -1.512,-1.08 -3.024,-2.088 -4.536,-3.096 l 0,5.976 c 1.584,1.08 3.024,2.16 4.536,3.312 l 0,-6.192 0,0 z m -4.536,171.648 c 1.512,-1.008 3.024,-2.016 4.536,-3.096 l 0,-6.192 c -1.512,1.152 -2.952,2.232 -4.536,3.312 l 0,5.976 0,0 z m 4.536,-42.192 0,-10.584 c -1.512,-0.864 -3.024,-1.656 -4.536,-2.376 l 0,12.384 c 1.512,0.144 2.952,0.36 4.536,0.576 l 0,0 z m 0,-57.816 0,-2.16 c -0.648,0 -1.08,0.504 -1.08,1.008 0,0.576 0.432,1.08 1.08,1.152 l 0,0 z m 0,-12.096 0,-1.44 c -0.72,-0.864 -1.368,-1.8 -2.16,-2.88 -0.648,-0.864 -1.44,-1.584 -2.376,-2.232 l 0,1.368 c 1.224,1.008 2.304,2.232 3.24,3.6 0.504,0.576 0.864,1.152 1.296,1.584 l 0,0 z m 0,-11.016 0,-10.512 c -0.288,-0.432 -0.576,-0.864 -0.936,-1.296 -1.224,-1.512 -2.016,-4.032 -1.512,-6.12 0.504,-2.448 -0.648,-3.96 -2.088,-4.896 l 0,2.448 c 0.504,1.008 0.432,2.304 0.072,3.744 l -0.072,0.144 0,12.168 c 1.8,1.296 3.24,2.808 4.536,4.32 l 0,0 z m -4.536,11.448 0,2.448 c 0.576,-0.144 0.936,-0.576 0.936,-1.152 0,-0.648 -0.36,-1.152 -0.936,-1.296 l 0,0 z m 0,5.544 0,2.304 c 0.144,0 0.36,0.072 0.504,0.072 0.648,0 1.224,-0.504 1.224,-1.224 0,-0.648 -0.576,-1.224 -1.224,-1.224 -0.144,0 -0.36,0 -0.504,0.072 l 0,0 z m 0,6.912 0,2.664 c 0.144,0 0.216,0 0.36,0 0.72,0 1.368,-0.576 1.368,-1.368 0,-0.792 -0.648,-1.368 -1.368,-1.368 -0.144,0 -0.216,0 -0.36,0.072 l 0,0 z m 0,7.272 0,1.368 c 0.216,0.216 0.504,0.432 0.792,0.432 0.648,0 1.152,-0.576 1.152,-1.152 0,-0.504 -0.504,-1.008 -1.152,-1.008 -0.288,0 -0.576,0.144 -0.792,0.36 l 0,0 z m 0,4.824 0,3.096 0.072,0 c 0.792,0 1.512,-0.72 1.512,-1.512 0,-0.936 -0.72,-1.584 -1.512,-1.584 l -0.072,0 z m 0,-87.624 c -1.656,-1.08 -3.456,-2.16 -5.184,-3.168 l 0,16.56 c 1.368,-2.304 3.024,-4.608 4.752,-7.776 0.144,0.144 0.288,0.216 0.432,0.36 l 0,-5.976 0,0 z m -5.184,177.912 c 1.728,-1.008 3.528,-2.088 5.184,-3.168 l 0,-5.976 c -1.656,1.152 -3.384,2.304 -5.184,3.384 l 0,5.76 0,0 z m 5.184,-45.936 0,-12.384 c -1.728,-0.792 -3.456,-1.584 -5.184,-2.304 l 0,13.824 c 1.728,0.288 3.456,0.576 5.184,0.864 l 0,0 z m 0,-41.256 0,-3.096 c -0.864,0 -1.512,0.72 -1.512,1.584 0,0.792 0.648,1.44 1.512,1.512 l 0,0 z m 0,-6.552 0,-1.368 c -0.144,0.144 -0.216,0.432 -0.216,0.648 0,0.288 0.072,0.576 0.216,0.72 l 0,0 z m 0,-5.976 0,-2.664 c -0.648,0.144 -1.08,0.648 -1.08,1.296 0,0.72 0.432,1.224 1.08,1.368 l 0,0 z m 0,-7.272 0,-2.304 c -0.432,0.216 -0.72,0.648 -0.72,1.152 0,0.504 0.288,0.936 0.72,1.152 l 0,0 z m 0,-5.4 0,-2.448 c -0.072,0 -0.144,0 -0.216,0 -0.792,0 -1.296,0.504 -1.296,1.296 0,0.648 0.504,1.152 1.296,1.152 0.072,0 0.144,0 0.216,0 l 0,0 z m 0,-8.064 0,-1.368 c -0.864,-0.72 -1.8,-1.368 -2.88,-2.232 -0.792,-0.36 -1.584,-0.576 -2.304,-0.864 l 0,0.864 c 1.944,0.936 3.672,2.088 5.184,3.6 l 0,0 z m 0,-10.152 0,-12.168 c -0.648,2.592 -1.944,3.672 -3.384,6.048 -1.08,2.088 0.288,4.032 1.728,4.968 0.576,0.36 1.152,0.72 1.656,1.152 l 0,0 z m 0,-16.056 0,-2.448 c -0.144,-0.072 -0.36,-0.216 -0.576,-0.36 -1.872,-1.008 -3.24,-1.584 -4.608,-2.088 l 0,1.944 c 1.08,0.36 2.16,0.792 3.24,1.224 1.008,0.36 1.656,0.936 1.944,1.728 l 0,0 z m -5.184,28.584 0,1.296 c 0.144,0.144 0.36,0.216 0.648,0.216 0.504,0 0.864,-0.36 0.864,-0.864 0,-0.504 -0.36,-0.936 -0.864,-0.936 -0.288,0 -0.504,0.144 -0.648,0.288 l 0,0 z m 0,6.336 0,2.664 0,0 c 0.792,0 1.368,-0.576 1.368,-1.368 0,-0.792 -0.576,-1.296 -1.368,-1.296 l 0,0 0,0 z m 0,5.616 0,2.088 c 0.288,0.288 0.648,0.504 1.08,0.504 0.792,0 1.584,-0.72 1.584,-1.512 0,-0.936 -0.792,-1.584 -1.584,-1.584 -0.432,0 -0.792,0.216 -1.08,0.504 l 0,0 z m 0,11.808 0,1.872 0,0 c 0.504,0 0.936,-0.36 0.936,-0.864 0,-0.576 -0.432,-1.008 -0.936,-1.008 l 0,0 z m 0,-86.76 c -0.432,-0.216 -0.864,-0.504 -1.224,-0.72 l 0,19.368 c 0.36,-0.72 0.792,-1.368 1.224,-2.088 l 0,-16.56 0,0 z m -1.224,181.728 c 0.36,-0.216 0.792,-0.432 1.224,-0.648 l 0,-5.76 c -0.432,0.216 -0.864,0.504 -1.224,0.72 l 0,5.688 0,0 z m 1.224,-47.448 0,-13.824 c -0.432,-0.144 -0.864,-0.288 -1.224,-0.432 l 0,14.112 c 0.36,0.072 0.792,0.072 1.224,0.144 l 0,0 z m 0,-45.648 0,-1.872 c -0.504,0 -0.936,0.432 -0.936,1.008 0,0.504 0.432,0.864 0.936,0.864 l 0,0 z m 0,-11.592 0,-2.088 c -0.288,0.288 -0.432,0.648 -0.432,1.08 0,0.36 0.144,0.72 0.432,1.008 l 0,0 z m 0,-5.04 0,-2.664 c -0.504,0 -1.008,0.216 -1.224,0.648 l 0,1.224 c 0.216,0.504 0.72,0.792 1.224,0.792 l 0,0 z m 0,-7.704 0,-1.296 c -0.144,0.144 -0.288,0.36 -0.288,0.648 0,0.216 0.144,0.504 0.288,0.648 l 0,0 z m 0,-7.272 0,-0.864 -1.224,-0.432 0,0.72 c 0.432,0.216 0.792,0.36 1.224,0.576 l 0,0 z m 0,-25.56 0,-1.944 c -0.432,-0.144 -0.792,-0.288 -1.224,-0.432 l 0,1.944 c 0.36,0.144 0.792,0.288 1.224,0.432 l 0,0 z m -1.224,48.24 0,2.16 c 0.576,0 1.008,-0.504 1.008,-1.08 0,-0.576 -0.432,-1.08 -1.008,-1.08 z m 0,-80.424 c -7.704,-4.248 -15.984,-7.56 -24.696,-9.72 l 0,27.144 c 1.368,2.16 2.088,3.6 3.744,5.832 1.368,1.872 2.448,4.536 5.976,4.896 5.76,0.576 10.512,2.016 14.976,3.6 l 0,-1.944 c -1.08,-0.36 -2.16,-0.72 -3.528,-1.224 0.864,-3.888 2.088,-6.696 3.528,-9.216 l 0,-19.368 0,0 z m -24.696,192.24 c 8.712,-2.16 16.992,-5.472 24.696,-9.792 l 0,-5.688 c -7.632,4.536 -15.912,7.992 -24.696,10.368 l 0,5.112 0,0 z m 24.696,-57.384 0,-14.112 c -6.912,-2.664 -14.256,-4.464 -23.616,-6.912 3.96,-7.704 2.232,-14.4 -1.08,-16.704 l 0,5.328 c 0.216,0.432 0.288,0.864 0.36,1.368 0.216,2.016 0.288,3.744 -0.36,5.256 l 0,19.44 c 0.36,0.144 0.72,0.288 1.08,0.36 9.36,3.024 16.344,4.68 23.616,5.976 l 0,0 z m 0,-52.272 0,-2.16 c -0.648,0 -1.08,0.504 -1.08,1.08 0,0.576 0.432,1.08 1.08,1.08 l 0,0 z m 0,-10.656 0,-1.224 c -0.144,0.216 -0.144,0.432 -0.144,0.648 0,0.216 0,0.432 0.144,0.576 l 0,0 z m 0,-14.76 c -2.088,-0.864 -4.32,-1.44 -6.84,-1.8 0.216,4.392 0.792,13.032 3.168,36.432 l -0.792,0.144 c -1.512,-11.088 -2.16,-16.632 -3.672,-27.576 -5.472,-5.112 -8.136,-7.632 -13.608,-12.6 -1.008,1.368 -2.016,2.808 -2.952,4.104 l 0,-10.44 2.664,3.6 c 1.224,1.728 1.728,2.664 3.24,4.032 3.672,3.528 5.472,5.328 9.216,8.856 0.648,0.576 2.088,-0.072 2.016,-1.008 -0.216,-2.088 -0.36,-3.168 -0.576,-5.328 -0.144,-0.936 -1.224,-0.576 -2.016,-0.936 -0.576,-0.288 0,-1.8 0.576,-1.584 3.888,1.44 6.336,2.304 9.576,3.384 l 0,0.72 0,0 z m -24.696,78.552 0,3.456 c 5.544,0.216 9.36,0.36 15.84,0.504 -5.544,-1.44 -10.8,-2.736 -15.84,-3.96 z m 0,-145.44 c -8.136,-2.088 -16.704,-3.24 -25.56,-3.24 -4.752,0 -9.576,0.36 -14.256,1.008 l 0,115.848 c 0.576,0.288 1.08,0.792 1.44,1.368 0.648,0.864 1.368,2.736 0.144,2.736 -0.648,0 -1.152,-0.216 -1.584,-0.648 l 0,14.472 c 12.528,0.144 24.552,1.944 39.816,6.696 l 0,-19.44 c -0.288,0.792 -0.792,1.512 -1.512,2.304 -1.512,-2.16 -3.024,-4.824 -5.256,-4.824 -0.144,-2.16 -0.072,-4.104 1.008,-6.336 0.936,-1.944 4.608,-0.576 5.76,2.232 l 0,-5.328 c -2.664,-1.872 -6.336,-0.864 -9.072,4.68 -1.368,3.024 -1.152,5.76 0.504,8.208 2.016,2.88 0.216,5.544 -1.224,7.848 -0.792,1.224 -2.376,2.304 -4.176,1.152 -6.192,-3.6 -12.6,-3.888 -15.336,0.36 -1.296,2.16 -4.392,2.52 -4.896,-0.936 -0.648,-3.816 -0.288,-6.768 -1.296,-10.152 -0.576,-2.16 -0.144,-3.744 1.872,-2.736 1.152,0.216 1.656,0.36 2.808,0.576 -0.792,-1.584 -0.792,-2.88 -0.504,-4.464 5.04,0.288 8.64,0.432 13.68,0.432 -2.016,-3.672 -6.336,-5.976 -7.344,-2.448 -3.528,0.36 -5.832,0.144 -8.64,0.936 -1.296,-1.224 -2.016,-1.8 -3.024,-2.88 -1.44,-2.16 4.752,-1.872 8.928,-1.728 1.008,-3.24 -7.776,-2.304 -11.088,-1.08 -2.304,-5.832 1.152,-11.88 9.504,-11.52 0.72,-3.168 1.08,-4.824 1.8,-8.208 0.72,-3.24 4.752,-2.952 4.968,0.792 0.072,2.592 0.144,3.888 0.288,6.48 0.072,2.016 0.576,3.456 1.8,4.32 2.952,2.016 3.096,9.36 6.192,9.504 -2.16,-6.768 -3.384,-10.44 -5.904,-17.784 7.848,-6.12 13.32,-13.104 20.16,-22.608 l 0,-10.44 c -1.944,-2.664 -3.528,-4.824 -5.976,-8.136 -0.432,-7.272 0,-12.168 0.792,-19.728 0.288,-3.312 2.808,-3.96 4.824,-0.792 0.144,0.216 0.216,0.432 0.36,0.648 l 0,-27.144 0,0 z m -39.816,204.192 c 4.68,0.648 9.504,1.008 14.256,1.008 8.856,0 17.424,-1.152 25.56,-3.24 l 0,-5.112 c -5.544,1.44 -11.304,2.448 -17.208,2.952 6.192,-18.648 8.712,-30.312 13.104,-51.048 l 4.104,0.144 0,-3.456 c -13.104,-3.024 -25.056,-5.04 -39.816,-5.4 l 0,64.152 z m 0,-206.424 c -0.72,0.144 -1.44,0.216 -2.16,0.36 l 0,115.056 c 0.072,-0.072 0.216,-0.072 0.36,-0.072 0.648,0 1.224,0.144 1.8,0.504 l 0,-115.848 0,0 z m -2.16,206.064 c 0.72,0.144 1.44,0.216 2.16,0.36 l 0,-64.152 c -0.72,0 -1.44,0 -2.16,-0.072 l 0,63.864 0,0 z m 2.16,-72.288 0,-14.472 c -0.36,-0.36 -0.72,-0.864 -1.152,-1.512 -0.36,-0.432 -0.792,-1.08 -1.008,-1.656 l 0,9.72 c 0,0.072 0.072,0.072 0.072,0.072 l -0.072,0.072 0,7.776 c 0.72,0 1.44,0 2.16,0 z m -2.16,-133.416 c -1.728,0.288 -3.456,0.576 -5.184,0.936 l 0,116.496 c 1.512,-0.576 2.52,-0.576 3.6,1.872 1.008,2.448 -1.008,5.184 1.584,6.192 l 0,-9.72 c -0.144,-0.288 -0.144,-0.576 0,-0.72 l 0,-115.056 0,0 z m -5.184,204.768 c 1.728,0.36 3.456,0.648 5.184,0.936 l 0,-63.864 c -1.728,0 -3.456,0 -5.184,0 l 0,62.928 0,0 z m 5.184,-71.352 0,-7.776 c -1.872,1.224 -2.448,2.736 -4.68,3.024 -0.144,0.072 -0.36,0.072 -0.504,0.072 l 0,4.752 c 1.728,-0.072 3.456,-0.072 5.184,-0.072 z m -5.184,-132.48 c -1.152,0.288 -2.304,0.504 -3.384,0.792 l 0,95.4 c 0.864,0.864 1.368,2.016 1.584,3.096 0.72,3.888 0.072,6.984 -1.584,9.936 l 0,10.008 c 0.72,-1.152 1.584,-1.944 3.096,-2.592 0.072,-0.072 0.144,-0.072 0.288,-0.144 l 0,-116.496 0,0 z m -3.384,203.04 c 1.08,0.288 2.232,0.504 3.384,0.792 l 0,-62.928 c -1.152,0 -2.232,0.072 -3.384,0.072 l 0,62.064 0,0 z m 3.384,-70.488 0,-4.752 c -1.368,0.144 -2.52,-0.144 -3.384,-0.576 l 0,5.472 c 1.08,-0.072 2.232,-0.072 3.384,-0.144 z m -3.384,-131.76 c -3.672,0.936 -7.2,2.016 -10.656,3.24 l 0,92.88 c 2.232,0.648 4.392,-0.144 6.048,-1.08 1.944,-1.08 3.528,-0.648 4.608,0.36 l 0,-95.4 0,0 z m -10.656,198.936 c 3.456,1.296 6.984,2.376 10.656,3.312 l 0,-62.064 c -1.512,0 -3.024,0.072 -4.608,0.144 -2.304,-0.792 -4.248,-1.512 -6.048,-2.088 l 0,4.824 c 1.656,0.288 3.384,0.576 5.112,0.936 -0.576,21.096 1.08,32.976 3.888,52.56 -3.024,-0.864 -6.048,-1.872 -9,-2.952 l 0,5.328 0,0 z m 10.656,-67.032 0,-5.472 c -1.944,-1.08 -2.592,-3.384 -1.008,-6.264 0.288,-0.648 0.648,-1.224 1.008,-1.728 l 0,-10.008 c -0.504,0.72 -1.008,1.44 -1.584,2.232 -2.232,-8.208 -6.192,-9.432 -9.072,-7.56 l 0,2.448 c 1.08,-1.152 2.736,-1.44 3.888,-0.36 1.872,1.872 2.448,3.888 3.096,6.48 -1.656,1.152 -3.096,2.736 -4.968,3.744 -0.864,-0.792 -1.512,-1.584 -2.016,-2.448 l 0,3.816 c 0.432,0.36 0.936,0.72 1.44,1.08 -0.216,1.944 -0.432,2.88 -0.648,4.896 l -0.792,0.072 0,9.864 c 3.744,-0.36 7.2,-0.576 10.656,-0.792 z M 265.392,344.016 c -9.144,3.384 -17.712,8.064 -25.56,13.752 l 0,61.272 0.864,0.864 c 5.544,5.616 10.512,5.04 14.76,8.856 3.672,3.384 4.68,4.536 7.992,7.056 0.648,0.504 1.296,0.864 1.944,1.08 l 0,-92.88 0,0 z m -25.56,182.016 c 7.848,5.688 16.416,10.368 25.56,13.68 l 0,-5.328 c -9.216,-3.6 -17.856,-8.568 -25.56,-14.616 l 0,6.264 0,0 z m 25.56,-42.192 0,-4.824 c -3.96,-1.44 -7.344,-2.592 -12.456,-4.32 4.392,-0.504 8.568,-0.864 12.456,-1.224 l 0,-9.864 c -9.504,0.504 -17.568,0.648 -25.56,1.368 l 0,13.824 c 8.064,1.872 15.408,3.168 25.56,5.04 l 0,0 z m 0,-26.28 0,-3.816 c -1.44,-2.376 -1.368,-4.752 -0.504,-6.48 0.144,-0.36 0.288,-0.648 0.504,-0.936 l 0,-2.448 c -3.384,2.232 -5.112,9.144 0,13.68 z m -25.56,-99.792 c -25.992,19.008 -42.912,49.68 -42.912,84.096 0,34.488 16.92,65.16 42.912,84.168 l 0,-6.264 c -23.112,-18.216 -38.016,-46.44 -38.016,-77.904 0,-17.928 4.824,-34.704 13.392,-49.248 9.576,10.296 14.688,16.2 24.624,26.424 l 0,-61.272 0,0 z m 0,121.032 c -4.608,-1.08 -9.504,-2.304 -15.336,-4.032 -7.992,-2.304 -9,-5.256 -2.304,-6.912 6.12,-1.584 11.88,-2.376 17.64,-2.88 l 0,13.824 z" />
    </g>
  </g>
</svg>
